HIERARCHY
ROOT Hips
{
	OFFSET 0.000000 0.000000 0.000000
	CHANNELS 6 Xposition Yposition Zposition Zrotation Yrotation Xrotation
	JOINT LHipJoint
	{
		OFFSET 0.000000 0.000000 0.000000
		CHANNELS 3 Zrotation Yrotation Xrotation
		JOINT LeftUpLeg
		{
			OFFSET 0 2. 0
			CHANNELS 3 Zrotation Yrotation Xrotation
			JOINT LeftLeg
			{
				OFFSET -1. 2. 0
				CHANNELS 3 Zrotation Yrotation Xrotation
				End Site
				{
					OFFSET 0.000000 0.000000 0.000000
				}
			}
		}
	}
}

MOTION
Frames: 26
Frame Time: 0.041667
0.000000 0.000000 0.000000 22.465594 -96.282840 -126.542945 -31.434433 -84.019203 -53.359765 -6.107087 -2.483301 8.589199 0.010447 0.010447 0.010447 
0.000000 0.000000 0.000000 25.922195 -94.503255 -116.964851 -17.813879 -85.381405 -51.254885 -10.161644 -4.640482 6.633469 0.010806 0.010806 0.010806 
0.000000 0.000000 0.000000 29.378797 -92.723670 -107.386756 -4.193325 -86.743607 -49.150006 -14.216202 -6.797662 4.677739 0.011165 0.011165 0.011165 
0.000000 0.000000 0.000000 32.835398 -90.944085 -97.808661 9.427229 -88.105808 -47.045126 -18.270759 -8.954843 2.722008 0.011524 0.011524 0.011524 
0.000000 0.000000 0.000000 36.291999 -89.164500 -88.230566 23.047783 -89.468010 -44.940247 -22.325316 -11.112024 0.766278 0.011884 0.011884 0.011884 
0.000000 0.000000 0.000000 39.748600 -87.384914 -78.652472 36.668337 -90.830212 -42.835368 -26.379873 -13.269204 -1.189452 0.012243 0.012243 0.012243 
0.000000 0.000000 0.000000 43.205201 -85.605329 -69.074377 50.288892 -92.192413 -40.730488 -30.434430 -15.426385 -3.145182 0.012602 0.012602 0.012602 
0.000000 0.000000 0.000000 46.661802 -83.825744 -59.496282 63.909446 -93.554615 -38.625609 -34.488988 -17.583565 -5.100913 0.012961 0.012961 0.012961 
0.000000 0.000000 0.000000 50.118403 -82.046159 -49.918188 77.530000 -94.916816 -36.520729 -38.543545 -19.740746 -7.056643 0.013320 0.013320 0.013320 
0.000000 0.000000 0.000000 53.575004 -80.266574 -40.340093 91.150554 -96.279018 -34.415850 -42.598102 -21.897926 -9.012373 0.013680 0.013680 0.013680 
0.000000 0.000000 0.000000 57.031605 -78.486989 -30.761998 104.771108 -97.641220 -32.310971 -46.652659 -24.055107 -10.968103 0.014039 0.014039 0.014039 
0.000000 0.000000 0.000000 60.488207 -76.707404 -21.183903 118.391662 -99.003421 -30.206091 -50.707217 -26.212287 -12.923834 0.014398 0.014398 0.014398 
0.000000 0.000000 0.000000 63.944808 -74.927819 -11.605809 132.012216 -100.365623 -28.101212 -54.761774 -28.369468 -14.879564 0.014757 0.014757 0.014757 
0.000000 0.000000 0.000000 67.401409 -73.148234 -2.027714 145.632771 -101.727825 -25.996332 -58.816331 -30.526648 -16.835294 0.015116 0.015116 0.015116 
0.000000 0.000000 0.000000 70.858010 -71.368649 7.550381 159.253325 -103.090026 -23.891453 -62.870888 -32.683829 -18.791024 0.015476 0.015476 0.015476 
0.000000 0.000000 0.000000 74.314611 -69.589064 17.128475 172.873879 -104.452228 -21.786574 -66.925446 -34.841010 -20.746755 0.015835 0.015835 0.015835 
0.000000 0.000000 0.000000 77.771212 -67.809479 26.706570 186.494433 -105.814430 -19.681694 -70.980003 -36.998190 -22.702485 0.016194 0.016194 0.016194 
0.000000 0.000000 0.000000 81.227813 -66.029894 36.284665 200.114987 -107.176631 -17.576815 -75.034560 -39.155371 -24.658215 0.016553 0.016553 0.016553 
0.000000 0.000000 0.000000 84.684414 -64.250309 45.862759 213.735541 -108.538833 -15.471935 -79.089117 -41.312551 -26.613945 0.016913 0.016913 0.016913 
0.000000 0.000000 0.000000 88.141015 -62.470724 55.440854 227.356095 -109.901035 -13.367056 -83.143674 -43.469732 -28.569676 0.017272 0.017272 0.017272 
0.000000 0.000000 0.000000 91.597617 -60.691139 65.018949 240.976650 -111.263236 -11.262177 -87.198232 -45.626912 -30.525406 0.017631 0.017631 0.017631 
0.000000 0.000000 0.000000 95.054218 -58.911554 74.597044 254.597204 -112.625438 -9.157297 -91.252789 -47.784093 -32.481136 0.017990 0.017990 0.017990 
0.000000 0.000000 0.000000 98.510819 -57.131969 84.175138 268.217758 -113.987640 -7.052418 -95.307346 -49.941273 -34.436867 0.018349 0.018349 0.018349 
0.000000 0.000000 0.000000 101.967420 -55.352384 93.753233 281.838312 -115.349841 -4.947538 -99.361903 -52.098454 -36.392597 0.018709 0.018709 0.018709 
0.000000 0.000000 0.000000 105.424021 -53.572799 103.331328 295.458866 -116.712043 -2.842659 -103.416461 -54.255634 -38.348327 0.019068 0.019068 0.019068 
0.000000 0.000000 0.000000 108.880622 -51.793214 112.909422 309.079420 -118.074244 -0.737780 -107.471018 -56.412815 -40.304057 0.019427 0.019427 0.019427 
